<svg version="1.1" id="Layer_1" xmlns="http://www.w3.org/2000/svg" xmlns:xlink="http://www.w3.org/1999/xlink" x="0px" y="0px"
	 width="100%" viewBox="0 0 1024 976" enable-background="new 0 0 1024 976" xml:space="preserve">
<path fill="#000000" opacity="1.000000" stroke="none" 
	d="
M95.749603,904.764221 
	C99.538780,900.098206 103.282829,895.843811 106.660400,891.316162 
	C109.704735,887.235107 113.326416,885.624817 118.547707,885.646851 
	C190.212128,885.949646 261.876556,886.312683 333.543121,885.930786 
	C351.581238,885.834656 369.500000,884.115540 387.359863,882.379517 
	C404.506073,880.712891 421.593109,877.432922 438.394592,873.523071 
	C453.493683,870.009460 468.354828,865.398254 483.118195,860.400940 
	C501.477783,854.186340 519.227295,846.641846 536.595032,838.308472 
	C559.010376,827.553284 580.430054,814.860107 600.901978,800.692200 
	C609.369812,794.831909 614.308960,786.496582 617.895813,776.779602 
	C623.535583,761.501404 627.072693,746.028748 626.682129,729.712708 
	C626.426758,719.041687 625.773010,708.320068 622.410828,698.194824 
	C616.166687,679.390625 605.618835,663.100403 592.270447,648.413330 
	C573.603577,627.874390 552.473206,610.153992 531.051636,592.658081 
	C505.157471,571.509094 478.323059,551.469177 454.215240,528.182312 
	C440.139893,514.586243 427.667236,499.693573 418.199402,482.533295 
	C412.306213,471.852051 407.657288,460.651611 404.421021,448.727051 
	C400.417725,433.976318 398.617645,419.166443 398.770081,403.956696 
	C398.876465,393.342041 401.608521,383.313354 404.170441,373.155426 
	C408.990448,354.044434 418.902252,337.833008 431.718781,323.213654 
	C443.593994,309.668060 458.022675,299.340210 473.731781,290.749756 
	C487.286652,283.337341 501.658417,277.744263 516.561096,273.905609 
	C523.548706,272.105774 530.608398,270.298645 537.972290,269.587616 
	C603.991333,263.213104 670.138428,267.902740 736.215271,267.191742 
	C753.265625,267.008270 770.128296,270.617126 786.740662,275.245209 
	C806.633728,280.787292 825.068665,289.160919 841.808167,301.032410 
	C861.322815,314.872070 876.410095,332.499359 884.993103,355.184418 
	C885.466919,356.436615 885.923401,357.728699 888.256531,357.931580 
	C888.908813,353.673431 890.641602,349.401489 891.214355,345.225616 
	C893.603577,327.806946 898.551758,310.927002 901.287109,293.558411 
	C903.792175,277.652466 905.991455,261.687653 908.492981,245.778336 
	C910.479431,233.145142 911.933960,220.346848 912.421326,207.575928 
	C913.519653,178.794174 916.112915,150.037430 914.689514,121.192131 
	C914.460266,116.544373 913.768311,111.917572 913.234985,107.287453 
	C912.948242,104.798546 912.512451,102.289970 913.345032,99.861542 
	C914.329407,96.990112 916.072021,96.683357 918.154785,98.850098 
	C919.894714,100.660027 919.928650,103.034683 920.243896,105.364464 
	C921.800171,116.864441 923.883179,128.310440 924.970886,139.851746 
	C926.110046,151.939133 928.097351,163.913071 929.507324,175.955231 
	C932.168945,198.687759 932.512451,221.474197 933.139648,244.256424 
	C933.864197,270.575500 932.899475,296.903168 931.052307,323.160034 
	C929.862671,340.071472 928.448303,357.044281 925.616455,373.731934 
	C924.098999,382.673523 922.569763,391.742493 921.023071,400.678497 
	C919.042847,412.119110 916.891418,423.555908 914.000061,434.718933 
	C910.647339,447.663544 907.715881,460.742706 903.475586,473.503143 
	C900.195862,483.373230 896.715942,493.213379 893.867920,503.249023 
	C892.293701,508.796143 889.873840,514.117493 887.646667,519.462036 
	C883.326721,529.828735 879.116516,540.251953 874.417664,550.447510 
	C867.713257,564.995117 860.572754,579.323242 853.106018,593.519043 
	C842.974731,612.780884 832.200684,631.615234 820.232056,649.763672 
	C803.109253,675.727478 784.956055,700.967529 764.809814,724.676331 
	C744.849792,748.166077 723.351990,770.177795 700.498047,790.927551 
	C667.867188,820.554016 633.165405,847.299255 594.953674,869.335510 
	C570.937683,883.185242 546.042786,895.353821 520.150452,905.227234 
	C500.806335,912.603760 481.141052,919.105042 460.991516,924.213440 
	C442.915863,928.796204 424.594269,932.100281 406.232788,934.544922 
	C391.633942,936.488708 376.927765,938.465454 362.002899,938.420776 
	C276.171570,938.163879 190.338989,938.308411 104.506889,938.379272 
	C95.681046,938.386597 86.856079,938.833008 78.029480,939.016663 
	C75.904015,939.060852 73.506462,939.412903 72.354782,936.919067 
	C71.298538,934.631897 73.538239,933.682617 74.559891,932.340881 
	C81.510536,923.212463 88.540504,914.144409 95.749603,904.764221 
M788.949158,303.578247 
	C781.075806,297.942871 772.660767,293.146301 763.646790,289.756195 
	C742.416199,281.771454 720.202332,278.550903 697.646667,278.307983 
	C663.985840,277.945465 630.314453,277.825226 596.655579,278.244690 
	C567.690857,278.605682 539.337708,282.828888 512.804626,295.412933 
	C497.350739,302.742340 484.389099,313.250275 473.892120,326.735199 
	C465.645111,337.329620 459.574249,349.011505 456.300446,362.138580 
	C453.812256,372.115540 451.291016,381.996918 451.149841,392.420502 
	C450.977203,405.171875 453.455048,417.376343 456.591064,429.640442 
	C459.946503,442.762665 466.229767,454.246979 473.905792,465.163086 
	C486.892975,483.632263 504.211700,497.770142 521.113586,512.302368 
	C550.884583,537.899475 582.560852,561.222168 611.447266,587.880188 
	C612.148560,588.527405 612.888550,589.320374 614.613159,588.820496 
	C614.944031,586.316284 615.562439,583.579102 615.627441,580.828918 
	C616.060486,562.508423 616.624451,544.185974 616.683167,525.862671 
	C616.886597,462.367157 616.896301,398.871002 616.993591,335.375122 
	C617.005432,327.642273 617.912720,326.784698 625.586853,326.758514 
	C637.919067,326.716492 650.253845,326.792877 662.582520,326.556915 
	C670.886780,326.397980 672.124268,327.328278 671.993774,335.803711 
	C671.626953,359.622620 671.670227,383.436188 671.794861,407.260590 
	C672.243164,492.919586 672.148193,578.581421 672.240784,664.242188 
	C672.245300,668.426514 672.352966,672.612488 673.688965,676.596497 
	C678.996155,692.421997 682.471802,708.537170 682.035400,725.349304 
	C681.987610,727.187988 681.137146,729.342346 683.314392,731.145386 
	C741.715149,675.765076 785.825928,610.396912 820.499268,538.259155 
	C819.222778,537.840759 818.525696,537.845764 817.984375,538.138733 
	C800.795776,547.442383 782.052429,551.875244 762.968140,554.355530 
	C750.305969,556.001160 737.377258,555.646790 724.563660,556.054810 
	C718.403503,556.250977 712.235840,556.132263 706.099915,555.350769 
	C703.296997,554.993774 701.143677,553.673340 701.105713,550.748413 
	C701.065186,547.618408 702.931580,545.452026 706.085876,544.790283 
	C707.367798,544.521301 708.742310,544.672180 710.074829,544.669067 
	C734.593262,544.611572 758.423950,541.486572 780.185547,529.045288 
	C799.481750,518.013489 813.880981,502.358429 823.783386,482.560608 
	C827.918274,474.293610 831.627258,465.902466 833.622070,456.698761 
	C835.543518,447.833557 838.598633,439.212402 838.753235,430.015808 
	C838.845642,424.517273 838.661743,419.009369 838.901245,413.518768 
	C839.835876,392.089905 835.697754,371.694977 827.236877,352.015167 
	C818.898682,332.620392 806.308594,316.697327 788.949158,303.578247 
z"/>
</svg>