<svg width="500" height="511" viewBox="0 0 500 511" fill="none" xmlns="http://www.w3.org/2000/svg">
<rect y="11" width="500" height="500" fill="white"/>
<path d="M84.8336 397.941C84.3175 393.583 82.2245 390.2 78.5545 387.792C74.8846 385.383 70.3832 384.179 65.0504 384.179C61.1511 384.179 57.7392 384.81 54.8147 386.071C51.9189 387.333 49.6538 389.067 48.0196 391.275C46.414 393.483 45.6112 395.992 45.6112 398.801C45.6112 401.152 46.1703 403.174 47.2885 404.865C48.4353 406.528 49.8976 407.919 51.6752 409.037C53.4528 410.127 55.3164 411.03 57.2661 411.746C59.2157 412.435 61.0077 412.994 62.642 413.424L71.5874 415.832C73.8811 416.434 76.4329 417.266 79.2427 418.327C82.0811 419.387 84.7906 420.835 87.371 422.67C89.9801 424.477 92.1304 426.799 93.822 429.637C95.5136 432.476 96.3594 435.959 96.3594 440.088C96.3594 444.848 95.1122 449.148 92.6178 452.99C90.1521 456.832 86.5395 459.886 81.7801 462.151C77.0493 464.416 71.3007 465.548 64.5343 465.548C58.2266 465.548 52.7647 464.53 48.1486 462.495C43.5612 460.459 39.9486 457.621 37.3108 453.979C34.7017 450.338 33.2252 446.109 32.8811 441.292H43.8909C44.1776 444.618 45.2958 447.371 47.2455 449.55C49.2238 451.7 51.7182 453.306 54.7287 454.366C57.7678 455.399 61.0364 455.915 64.5343 455.915C68.6056 455.915 72.2612 455.255 75.5011 453.936C78.7409 452.589 81.307 450.725 83.1993 448.345C85.0916 445.937 86.0378 443.127 86.0378 439.916C86.0378 436.992 85.2206 434.612 83.5864 432.777C81.9521 430.942 79.8018 429.451 77.1353 428.304C74.4689 427.157 71.5874 426.154 68.4909 425.294L57.6532 422.197C50.772 420.219 45.3245 417.395 41.3105 413.725C37.2965 410.055 35.2895 405.252 35.2895 399.317C35.2895 394.386 36.6227 390.085 39.2892 386.415C41.9843 382.717 45.5969 379.85 50.1269 377.814C54.6857 375.75 59.7748 374.717 65.3944 374.717C71.0713 374.717 76.1175 375.735 80.5329 377.771C84.9483 379.778 88.4462 382.53 91.0266 386.028C93.6357 389.526 95.0119 393.497 95.1552 397.941H84.8336ZM112.519 464V397.941H122.669V464H112.519ZM117.68 386.931C115.702 386.931 113.996 386.258 112.562 384.91C111.157 383.563 110.455 381.943 110.455 380.05C110.455 378.158 111.157 376.538 112.562 375.191C113.996 373.843 115.702 373.169 117.68 373.169C119.658 373.169 121.35 373.843 122.755 375.191C124.189 376.538 124.905 378.158 124.905 380.05C124.905 381.943 124.189 383.563 122.755 384.91C121.35 386.258 119.658 386.931 117.68 386.931ZM141.259 464V397.941H151.064V408.263H151.924C153.301 404.736 155.523 401.998 158.591 400.049C161.658 398.07 165.343 397.081 169.643 397.081C174.001 397.081 177.628 398.07 180.524 400.049C183.449 401.998 185.728 404.736 187.362 408.263H188.05C189.742 404.851 192.279 402.142 195.663 400.135C199.046 398.099 203.103 397.081 207.834 397.081C213.74 397.081 218.571 398.93 222.327 402.629C226.083 406.299 227.961 412.019 227.961 419.789V464H217.811V419.789C217.811 414.915 216.478 411.431 213.812 409.338C211.145 407.245 208.006 406.199 204.393 406.199C199.748 406.199 196.15 407.603 193.598 410.413C191.047 413.194 189.771 416.721 189.771 420.993V464H179.449V418.757C179.449 415.001 178.23 411.976 175.793 409.682C173.356 407.36 170.217 406.199 166.375 406.199C163.737 406.199 161.271 406.901 158.978 408.306C156.713 409.711 154.878 411.66 153.473 414.155C152.097 416.621 151.408 419.473 151.408 422.713V464H141.259ZM246.518 488.772V397.941H256.324V408.435H257.528C258.274 407.288 259.306 405.826 260.625 404.048C261.972 402.242 263.893 400.636 266.388 399.231C268.911 397.798 272.323 397.081 276.623 397.081C282.185 397.081 287.088 398.472 291.332 401.253C295.575 404.034 298.887 407.976 301.266 413.08C303.646 418.183 304.836 424.204 304.836 431.143C304.836 438.138 303.646 444.202 301.266 449.335C298.887 454.438 295.589 458.395 291.375 461.205C287.16 463.986 282.3 465.376 276.795 465.376C272.552 465.376 269.154 464.674 266.603 463.269C264.051 461.835 262.087 460.215 260.711 458.409C259.334 456.574 258.274 455.055 257.528 453.85H256.668V488.772H246.518ZM256.496 430.971C256.496 435.959 257.227 440.36 258.689 444.174C260.152 447.958 262.288 450.926 265.097 453.076C267.907 455.198 271.348 456.259 275.419 456.259C279.662 456.259 283.203 455.141 286.042 452.904C288.909 450.639 291.059 447.6 292.493 443.787C293.955 439.945 294.686 435.673 294.686 430.971C294.686 426.326 293.969 422.14 292.536 418.413C291.131 414.657 288.995 411.689 286.128 409.51C283.289 407.302 279.72 406.199 275.419 406.199C271.29 406.199 267.821 407.245 265.011 409.338C262.202 411.402 260.08 414.298 258.646 418.026C257.213 421.724 256.496 426.039 256.496 430.971ZM320.318 464V397.941H330.468V464H320.318ZM325.479 386.931C323.501 386.931 321.795 386.258 320.361 384.91C318.956 383.563 318.254 381.943 318.254 380.05C318.254 378.158 318.956 376.538 320.361 375.191C321.795 373.843 323.501 373.169 325.479 373.169C327.458 373.169 329.149 373.843 330.554 375.191C331.988 376.538 332.704 378.158 332.704 380.05C332.704 381.943 331.988 383.563 330.554 384.91C329.149 386.258 327.458 386.931 325.479 386.931ZM390.689 436.992V397.941H400.838V464H390.689V452.818H390C388.452 456.173 386.044 459.026 382.775 461.377C379.507 463.699 375.378 464.86 370.389 464.86C366.261 464.86 362.591 463.957 359.379 462.151C356.168 460.316 353.645 457.563 351.81 453.893C349.975 450.195 349.058 445.536 349.058 439.916V397.941H359.207V439.228C359.207 444.045 360.555 447.887 363.25 450.754C365.974 453.621 369.443 455.055 373.658 455.055C376.181 455.055 378.747 454.409 381.356 453.119C383.994 451.829 386.201 449.851 387.979 447.184C389.785 444.518 390.689 441.12 390.689 436.992ZM466.22 412.736L457.102 415.316C456.529 413.796 455.683 412.32 454.565 410.886C453.475 409.424 451.984 408.22 450.092 407.274C448.2 406.328 445.777 405.855 442.824 405.855C438.781 405.855 435.412 406.786 432.717 408.65C430.051 410.485 428.718 412.822 428.718 415.66C428.718 418.183 429.635 420.176 431.47 421.638C433.305 423.1 436.172 424.319 440.071 425.294L449.877 427.702C455.783 429.136 460.184 431.329 463.08 434.282C465.976 437.207 467.424 440.977 467.424 445.593C467.424 449.378 466.334 452.761 464.155 455.743C462.005 458.724 458.994 461.076 455.124 462.796C451.253 464.516 446.752 465.376 441.62 465.376C434.882 465.376 429.305 463.914 424.89 460.99C420.475 458.065 417.679 453.793 416.504 448.173L426.137 445.765C427.055 449.32 428.789 451.987 431.341 453.764C433.921 455.542 437.29 456.431 441.448 456.431C446.178 456.431 449.934 455.427 452.715 453.42C455.525 451.385 456.93 448.948 456.93 446.109C456.93 443.815 456.127 441.894 454.522 440.346C452.916 438.769 450.45 437.594 447.125 436.82L436.115 434.239C430.065 432.806 425.621 430.584 422.783 427.573C419.973 424.534 418.568 420.735 418.568 416.176C418.568 412.449 419.614 409.152 421.707 406.285C423.829 403.417 426.711 401.167 430.352 399.533C434.022 397.898 438.179 397.081 442.824 397.081C449.361 397.081 454.493 398.515 458.22 401.382C461.976 404.249 464.643 408.034 466.22 412.736Z" fill="#0B1F3A"/>
<g clip-path="url(#clip0_2_11)">
<path d="M56.3852 353.233C54.3401 353.275 52.4833 353.333 50.6266 353.33C49.6708 353.329 48.4219 353.639 48.0618 352.442C47.7201 351.306 48.8724 350.771 49.6469 350.255C53.3381 347.793 57.0765 345.397 60.793 342.97C62.6523 341.756 64.5509 340.591 66.3394 339.286C67.9816 338.087 69.7921 337.808 71.7683 337.846C86.554 338.131 101.34 338.344 116.13 338.243C127.207 338.167 138.273 337.742 149.29 336.694C157.716 335.893 166.145 334.878 174.421 333.11C181.762 331.542 189.067 329.816 196.277 327.696C201.068 326.287 205.954 325.096 210.651 323.454C216.449 321.427 222.246 319.362 227.853 316.811C233.866 314.075 239.861 311.327 245.638 308.155C256.319 302.29 266.295 295.547 274.274 286.393C278.45 281.602 281.663 276.296 284.02 270.411C286.614 263.933 286.619 257.3 285.929 250.656C285.602 247.517 284.245 244.458 282.951 241.459C278.997 232.298 272.506 224.777 266.411 216.969C261.418 210.574 256.662 204.004 252.918 196.821C248 187.384 246.302 177.343 247.711 166.963C249.074 156.92 254.091 148.481 261.507 141.355C269.385 133.786 278.826 128.538 288.846 124.087C294.223 121.699 299.706 119.57 305.191 117.449C310.128 115.54 315.187 113.924 320.146 112.063C323.627 110.757 327.007 109.199 330.475 107.858C334.276 106.39 337.915 104.611 341.542 102.797C354.3 96.4156 365.515 88.197 374.726 77.4755C380.945 70.2362 386.134 62.3531 390.722 54.117C393.793 48.6053 396.515 42.911 398.817 37.0232C400.32 33.177 401.813 29.3202 403.155 25.4271C403.75 23.7019 404.346 21.9342 404.807 20.1479C404.946 19.6087 405.148 18.9543 405.922 19.0025C406.659 19.0484 406.83 19.6681 406.958 20.2377C407.055 20.6722 407.139 21.1203 407.14 21.5626C407.171 34.7168 407.215 47.8773 406.362 61.0084C405.851 68.8852 405.018 76.754 403.988 84.5847C403.025 91.9055 401.871 99.2229 400.328 106.448C398.546 114.787 396.447 123.076 394.103 131.286C392.305 137.582 390.455 143.873 388.356 150.099C386.219 156.44 384.068 162.782 381.62 169.003C378.82 176.119 375.838 183.181 372.439 190.076C370.238 194.544 368.11 199.049 365.836 203.484C362.21 210.553 358.179 217.413 354.038 224.211C348.455 233.375 342.401 242.247 335.706 250.69C323.872 265.614 311.14 279.762 296.477 292.221C289.276 298.339 281.895 304.23 274.004 309.513C263.793 316.349 253.193 322.572 241.958 327.712C235.775 330.541 229.49 333.159 223.063 335.495C216.39 337.92 209.629 340.062 202.819 342.039C198.731 343.225 194.534 344.145 190.346 345.05C185.509 346.094 180.648 347.031 175.794 347.964C170.809 348.922 165.709 349.304 160.667 349.965C146.371 351.842 132.002 352.02 117.624 352.163C102.306 352.314 86.9869 352.372 71.6698 352.567C66.6356 352.632 61.6055 352.996 56.3852 353.233ZM382.356 111.535C382.956 108.62 383.569 105.708 384.15 102.789C384.771 99.669 385.412 96.5513 385.934 93.4157C386.113 92.3398 385.963 91.2129 385.963 90.0432C385.093 90.2547 384.777 90.6738 384.424 91.0481C377.576 98.3158 369.648 104.338 361.146 109.685C355.335 113.34 349.216 116.453 342.985 119.401C336.7 122.375 330.183 124.797 323.722 127.346C318.912 129.244 313.908 130.682 309.074 132.526C302.697 134.957 296.344 137.449 290.251 140.52C283.761 143.791 277.783 147.699 272.698 152.815C267.65 157.895 264.42 163.911 263.62 170.872C262.762 178.331 265.34 185.187 268.818 191.707C271.023 195.84 273.787 199.662 276.607 203.434C282.048 210.712 287.828 217.751 292.83 225.336C296.971 231.613 300.098 238.329 301.836 245.524C302.951 250.142 303.766 254.906 303.329 259.738C303.264 260.46 303.089 261.251 303.564 261.976C304.308 261.854 304.653 261.275 305.1 260.842C313.47 252.734 320.552 243.613 327.435 234.345C332.042 228.142 336.194 221.654 340.259 215.105C345.032 207.414 349.469 199.548 353.475 191.482C357.217 183.949 360.744 176.314 363.929 168.521C366.334 162.634 368.56 156.687 370.839 150.76C372.707 145.902 374.329 140.942 375.753 135.946C376.22 134.308 376.824 132.702 377.23 131.042C377.802 128.696 378.508 126.38 379.13 124.045C380.211 119.988 381.272 115.926 382.356 111.535Z" fill="#0B1F3A"/>
</g>
<defs>
<clipPath id="clip0_2_11">
<rect width="375" height="408.669" fill="white" transform="translate(62)"/>
</clipPath>
</defs>
</svg>
