<svg version="1.1" id="Layer_1" xmlns="http://www.w3.org/2000/svg" xmlns:xlink="http://www.w3.org/1999/xlink" x="0px" y="0px"
	 width="100%" viewBox="0 0 1024 928" enable-background="new 0 0 1024 928" xml:space="preserve">
<path fill="#000000" opacity="1.000000" stroke="none" 
	d="
M72.712402,898.870728 
	C67.573898,898.980225 62.908485,899.132690 58.243320,899.125488 
	C55.841724,899.121826 52.703720,899.929871 51.798946,896.807373 
	C50.940487,893.844666 53.835712,892.449585 55.781685,891.101868 
	C65.056328,884.679138 74.449333,878.427612 83.787491,872.096313 
	C88.459145,868.929016 93.229500,865.887695 97.723228,862.483215 
	C101.849442,859.357117 106.398384,858.629333 111.363899,858.728455 
	C148.514221,859.469849 185.665878,860.027283 222.827011,859.763306 
	C250.659454,859.565552 278.463715,858.455078 306.144562,855.722290 
	C327.316040,853.632141 348.494751,850.984253 369.289459,846.371765 
	C387.733368,842.280640 406.087036,837.776550 424.204712,832.245056 
	C436.241577,828.570129 448.517914,825.463257 460.318787,821.179443 
	C474.887787,815.890808 489.452179,810.502441 503.541504,803.847046 
	C518.650269,796.710144 533.713318,789.539062 548.228455,781.263184 
	C575.065247,765.961975 600.131592,748.369995 620.179138,724.487244 
	C630.670776,711.988525 638.745117,698.145447 644.666321,682.790466 
	C651.182983,665.891052 651.197266,648.586060 649.461487,631.251465 
	C648.641357,623.061523 645.231262,615.081848 641.979248,607.257507 
	C632.045166,583.355896 615.736511,563.732971 600.421448,543.364014 
	C587.876526,526.679443 575.926514,509.538055 566.519653,490.796600 
	C554.161804,466.175842 549.896606,439.978607 553.435608,412.899445 
	C556.860107,386.696167 569.466248,364.680786 588.101196,346.088287 
	C607.893311,326.341339 631.616211,312.649567 656.792786,301.037048 
	C670.303040,294.805542 684.077393,289.251740 697.860474,283.717865 
	C710.265991,278.737061 722.976685,274.520782 735.435486,269.666351 
	C744.183350,266.257874 752.673828,262.193268 761.389465,258.696411 
	C770.939941,254.864532 780.081848,250.225296 789.196045,245.491501 
	C821.250916,228.842560 849.430176,207.400406 872.572876,179.428391 
	C888.199280,160.541107 901.237183,139.974411 912.765625,118.486641 
	C920.480591,104.106735 927.320862,89.250580 933.104065,73.889565 
	C936.881958,63.854763 940.632629,53.792641 944.004272,43.635544 
	C945.498413,39.134506 946.995361,34.522823 948.154602,29.862267 
	C948.504578,28.455484 949.012085,26.748259 950.955933,26.874043 
	C952.806946,26.993814 953.237671,28.610453 953.558777,30.096493 
	C953.803650,31.230150 954.014099,32.399281 954.016785,33.553139 
	C954.095703,67.872177 954.203918,102.207626 952.062012,136.466263 
	C950.777161,157.016434 948.683655,177.545929 946.095764,197.976059 
	C943.676331,217.075714 940.778931,236.166580 936.899902,255.015991 
	C932.422729,276.771667 927.149353,298.398621 921.260254,319.817139 
	C916.743286,336.245209 912.094238,352.657135 906.820312,368.901978 
	C901.449890,385.444031 896.046448,401.991760 889.895142,418.221985 
	C882.858765,436.787567 875.366638,455.210266 866.828125,473.200043 
	C861.296143,484.855469 855.949829,496.608887 850.235352,508.179749 
	C841.126160,526.624390 830.997253,544.521484 820.591919,562.257751 
	C806.565674,586.165955 791.354370,609.311584 774.532227,631.339722 
	C744.796875,670.277283 712.808777,707.188538 675.966003,739.691956 
	C657.872009,755.654846 639.327271,771.025269 619.500916,784.806946 
	C593.843933,802.641724 567.210693,818.877258 538.981201,832.287964 
	C523.446716,839.667786 507.654663,846.499634 491.506561,852.592834 
	C474.739410,858.919739 457.751404,864.508057 440.641418,869.665833 
	C430.369476,872.762329 419.825348,875.162109 409.300232,877.521790 
	C397.148895,880.245911 384.934113,882.689697 372.738586,885.124634 
	C360.213287,887.625488 347.397705,888.619751 334.730133,890.346436 
	C298.808929,895.242920 262.706268,895.707825 226.579376,896.078979 
	C188.092087,896.474487 149.601929,896.625916 111.116348,897.135315 
	C98.467430,897.302734 85.828880,898.254456 72.712402,898.870728 
M891.745361,268.289124 
	C893.250916,260.683472 894.793457,253.084915 896.252136,245.470306 
	C897.811401,237.330521 899.421692,229.196472 900.734802,221.015778 
	C901.185364,218.208862 900.806396,215.268784 900.806396,212.217209 
	C898.620544,212.768814 897.827209,213.862320 896.940918,214.838959 
	C879.734131,233.800003 859.815674,249.511108 838.453491,263.462891 
	C823.852844,272.998718 808.477844,281.120117 792.822021,288.811920 
	C777.030273,296.570496 760.654968,302.887726 744.420044,309.539581 
	C732.335449,314.490967 719.763367,318.242798 707.615662,323.052551 
	C691.594543,329.395966 675.632202,335.898651 660.321533,343.910187 
	C644.015808,352.442383 628.994141,362.639709 616.218384,375.988037 
	C603.533752,389.241241 595.419373,404.936768 593.408752,423.096802 
	C591.254211,442.556458 597.732056,460.444946 606.469666,477.454376 
	C612.008972,488.237701 618.955872,498.210541 626.041077,508.050964 
	C639.711609,527.037415 654.232910,545.404236 666.803040,565.192200 
	C677.206177,581.568726 685.063416,599.091003 689.429321,617.862793 
	C692.231384,629.910950 694.279175,642.339172 693.181396,654.944946 
	C693.017334,656.829224 692.578247,658.892456 693.771729,660.783997 
	C695.640564,660.466125 696.509277,658.955627 697.630798,657.827393 
	C718.661194,636.672485 736.455017,612.875854 753.749634,588.697266 
	C765.326294,572.512695 775.758423,555.586426 785.971313,538.498474 
	C797.963318,518.433777 809.113159,497.911255 819.178955,476.868500 
	C828.579773,457.215759 837.443420,437.293823 845.444031,416.962799 
	C851.488159,401.603516 857.081055,386.088837 862.806702,370.626251 
	C867.500488,357.950409 871.577026,345.011139 875.154175,331.976501 
	C876.327332,327.701935 877.845703,323.513062 878.863647,319.182037 
	C880.302368,313.060638 882.075623,307.018677 883.639038,300.925598 
	C886.354919,290.341187 889.019836,279.743683 891.745361,268.289124 
z"/>
</svg>